<?xml version="1.0" encoding="utf-8"?>
<!-- Generator: Adobe Illustrator 18.1.1, SVG Export Plug-In . SVG Version: 6.00 Build 0)  -->
<svg version="1.1" id="Layer_1" xmlns="http://www.w3.org/2000/svg" xmlns:xlink="http://www.w3.org/1999/xlink" x="0px" y="0px"
	 viewBox="0 0 25 25.2" enable-background="new 0 0 25 25.2" xml:space="preserve">
<path fill="#FFFFFF" d="M16.1,13.9l-0.9-0.7c-0.3-0.2-0.6-0.5-0.6-1.1c0-0.6,0.4-0.9,0.7-1.2c1-0.8,2.1-1.7,2.1-3.5
	c0-1.9-1.2-2.9-1.8-3.4h1.5l1.6-1h-4.9c-1.3,0-3.3,0.3-4.7,1.5C8,5.4,7.5,6.7,7.5,7.8c0,1.9,1.5,3.9,4.1,3.9c0.2,0,0.5,0,0.8-0.1
	c-0.1,0.3-0.2,0.6-0.2,1c0,0.8,0.4,1.2,0.7,1.7c-1.1,0.1-3.2,0.2-4.8,1.2c-1.5,0.9-1.9,2.1-1.9,3c0,1.8,1.7,3.6,5.4,3.6
	c4.3,0,6.6-2.4,6.6-4.7C18.2,15.7,17.2,14.9,16.1,13.9z M12.8,11.1c-2.1,0-3.1-2.8-3.1-4.4c0-0.7,0.1-1.3,0.5-1.8
	c0.4-0.5,1.1-0.8,1.7-0.8c2.1,0,3.1,2.8,3.1,4.6c0,0.5,0,1.2-0.6,1.8C14.1,10.8,13.5,11.1,12.8,11.1z M12.9,21.1
	c-2.7,0-4.4-1.3-4.4-3c0-1.8,1.6-2.4,2.1-2.6c1-0.4,2.4-0.4,2.6-0.4c0.2,0,0.4,0,0.6,0c1.9,1.3,2.7,2,2.7,3.3
	C16.5,20,15.3,21.1,12.9,21.1z"/>
</svg>
