<?xml version="1.0" encoding="utf-8"?>
<!-- Generator: Adobe Illustrator 18.1.1, SVG Export Plug-In . SVG Version: 6.00 Build 0)  -->
<svg version="1.1" id="Layer_1" xmlns="http://www.w3.org/2000/svg" xmlns:xlink="http://www.w3.org/1999/xlink" x="0px" y="0px"
	 viewBox="0 0 25 25.2" enable-background="new 0 0 25 25.2" xml:space="preserve">
<g>
	<path fill="#FFFFFF" d="M7.5,21.3V9.5H3.6v11.8H7.5z M5.6,7.9c1.4,0,2.2-0.9,2.2-2c0-1.2-0.8-2-2.2-2c-1.3,0-2.2,0.9-2.2,2
		C3.4,7,4.2,7.9,5.6,7.9L5.6,7.9L5.6,7.9z"/>
	<path fill="#FFFFFF" d="M9.7,21.3h3.9v-6.6c0-0.4,0-0.7,0.1-1c0.3-0.7,0.9-1.4,2-1.4c1.4,0,2,1.1,2,2.7v6.3h3.9v-6.8
		c0-3.6-1.9-5.3-4.5-5.3c-2.1,0-3,1.2-3.6,2h0V9.5H9.7C9.7,10.6,9.7,21.3,9.7,21.3L9.7,21.3z"/>
</g>
</svg>
