<?xml version="1.0" encoding="utf-8"?>
<!-- Generator: Adobe Illustrator 18.1.1, SVG Export Plug-In . SVG Version: 6.00 Build 0)  -->
<svg version="1.1" id="Layer_1" xmlns="http://www.w3.org/2000/svg" xmlns:xlink="http://www.w3.org/1999/xlink" x="0px" y="0px"
	 viewBox="-575 379 129 44" enable-background="new -575 379 129 44" xml:space="preserve">
<g id="Layer_1_1_">
	<path fill="#FFFFFF" d="M-571,383h121v36h-50v-6h-4v6h-67V383z M-575,423h129v-44h-129V423z"/>
	<path fill="#FFFFFF" d="M-548.7,393h-3.3l-5.7,15h3.3l1.5-4.2h5.2l1.5,4.2h3.3L-548.7,393z M-552.1,401l1.7-4.5l1.7,4.5H-552.1z"/>
	<polygon fill="#FFFFFF" points="-520,393 -520,396 -514.7,396 -514.7,408 -511.3,408 -511.3,396 -506,396 -506,393 	"/>
	<polygon fill="#FFFFFF" points="-467,393 -470.7,399.4 -474.4,393 -478.1,393 -472.3,402.5 -472.3,408 -469.2,408 -469.2,402.5 
		-463.4,393 	"/>
	<path fill="#FFFFFF" d="M-484.4,400.1c-1-0.7-2.3-1-3.4-1.3c-0.2-0.1-0.5-0.1-0.7-0.2l-0.1,0c-0.9-0.2-2.2-0.6-2.2-1.7
		c0-1.2,1.4-1.5,2.2-1.5c0.9,0,2.1,0.3,2.4,1.6l0,0h2.9l0,0c-0.1-2.7-2-4.3-5.2-4.3c-2.4,0-5.2,1.1-5.2,4.3c0,3.3,2.9,4,5.5,4.6
		c0.2,0.1,0.5,0.1,0.7,0.2c1.3,0.3,2,1,2,1.8c0,1.9-2.4,2-2.9,2c-1.7,0-2.6-0.6-2.9-2l0,0h-3l0,0.1c0,1.2,0.2,1.9,0.9,2.8
		c1.4,1.7,3.7,1.9,4.9,1.9c2.8,0,5.9-1.5,5.9-4.7C-482.7,402.2-483.3,400.9-484.4,400.1"/>
	<path fill="#FFFFFF" d="M-527.2,401.6c1.1-0.8,1.8-2.3,1.8-3.8c0-1.6-0.8-3.2-2.2-4c-1.2-0.7-2.3-0.8-3.5-0.8h-6.7v15h3.1v-7.4
		l5.8,7.4h3.8l-4.4-5.5C-528.6,402.3-527.9,402.1-527.2,401.6 M-534.6,400v-4l3.5,0c0.7,0,1.3,0,1.8,0.4c0.5,0.3,0.8,1,0.8,1.6
		c0,1.3-1,2-2.8,2L-534.6,400L-534.6,400z"/>
</g>
<g id="Layer_2">
</g>
</svg>
