<?xml version="1.0" encoding="utf-8"?>
<!-- Generator: Adobe Illustrator 18.1.1, SVG Export Plug-In . SVG Version: 6.00 Build 0)  -->
<svg version="1.1" id="Layer_1" xmlns="http://www.w3.org/2000/svg" xmlns:xlink="http://www.w3.org/1999/xlink" x="0px" y="0px"
	 viewBox="0 0 25 25.2" enable-background="new 0 0 25 25.2" xml:space="preserve">
<path fill="#FFFFFF" d="M21.5,6.9c-0.7,0.3-1.4,0.5-2.1,0.6c0.8-0.5,1.3-1.2,1.6-2.1c-0.7,0.4-1.5,0.7-2.3,0.9C18,5.7,17,5.2,16,5.2
	c-2,0-3.7,1.7-3.7,3.7c0,0.3,0,0.6,0.1,0.8C9.3,9.6,6.6,8.1,4.8,5.9C4.4,6.4,4.3,7.1,4.3,7.8c0,1.3,0.7,2.4,1.6,3.1
	c-0.6,0-1.2-0.2-1.7-0.5v0c0,1.8,1.3,3.3,3,3.7c-0.3,0.1-0.6,0.1-1,0.1c-0.2,0-0.5,0-0.7-0.1C6,15.6,7.4,16.7,9,16.7
	c-1.3,1-2.9,1.6-4.6,1.6c-0.3,0-0.6,0-0.9-0.1C5.1,19.3,7.1,20,9.2,20c6.8,0,10.5-5.7,10.5-10.6c0-0.2,0-0.3,0-0.5
	C20.4,8.3,21,7.7,21.5,6.9z"/>
</svg>
